HIERARCHY
ROOT hip
{
	OFFSET 0.000000 0.000000 0.000000 
	CHANNELS 6 Xposition Yposition Zposition Xrotation Zrotation Yrotation
	JOINT abdomen
	{
		OFFSET 0.000000 3.402643 0.000000 
		CHANNELS 3 Xrotation Zrotation Yrotation
		JOINT chest
		{
			OFFSET 0.000000 8.438565 -0.680529 
			CHANNELS 3 Xrotation Zrotation Yrotation
			JOINT neck
			{
				OFFSET 0.000000 10.207942 -0.272212 
				CHANNELS 3 Xrotation Zrotation Yrotation
				JOINT head
				{
					OFFSET 0.000000 3.130431 0.000000 
					CHANNELS 3 Xrotation Zrotation Yrotation
					End Site
					{
						OFFSET 0.000000 3.130435 0.000000 
					}
				}
			}
			JOINT lCollar
			{
				OFFSET 3.470700 6.669187 -0.816635 
				CHANNELS 3 Yrotation Zrotation Xrotation
				JOINT lShldr
				{
					OFFSET 3.198488 0.000000 0.000000 
					CHANNELS 3 Zrotation Yrotation Xrotation
					JOINT lForeArm
					{
						OFFSET 10.139888 0.000000 0.000000 
						CHANNELS 3 Yrotation Zrotation Xrotation
						JOINT lHand
						{
							OFFSET 8.370511 0.000000 0.000000 
							CHANNELS 3 Zrotation Yrotation Xrotation
							End Site
							{
								OFFSET 4.083176 0.000000 0.000000 
							}
						}
					}
				}
			}
			JOINT rCollar
			{
				OFFSET -3.470700 6.669187 -0.816635 
				CHANNELS 3 Yrotation Zrotation Xrotation
				JOINT rShldr
				{
					OFFSET -3.198488 0.000000 0.000000 
					CHANNELS 3 Zrotation Yrotation Xrotation
					JOINT rForeArm
					{
						OFFSET -10.139888 0.000000 0.000000 
						CHANNELS 3 Yrotation Zrotation Xrotation
						JOINT rHand
						{
							OFFSET -8.370511 0.000000 0.000000 
							CHANNELS 3 Zrotation Yrotation Xrotation
							End Site
							{
								OFFSET -4.083176 0.000000 0.000000 
							}
						}
					}
				}
			}
		}
	}
	JOINT lThigh
	{
		OFFSET 5.308129 -1.633274 1.361059 
		CHANNELS 3 Xrotation Zrotation Yrotation
		JOINT lShin
		{
			OFFSET -2.041588 -20.007561 0.000000 
			CHANNELS 3 Xrotation Zrotation Yrotation
			JOINT lFoot
			{
				OFFSET 0.000000 -19.190928 -1.224953 
				CHANNELS 3 Xrotation Yrotation Zrotation
				End Site
				{
					OFFSET 0.000000 -2.449906 4.627600 
				}
			}
		}
	}
	JOINT rThigh
	{
		OFFSET -5.308129 -1.633274 1.361059 
		CHANNELS 3 Xrotation Zrotation Yrotation
		JOINT rShin
		{
			OFFSET 2.041588 -20.007561 0.000000 
			CHANNELS 3 Xrotation Zrotation Yrotation
			JOINT rFoot
			{
				OFFSET 0.000000 -19.190928 -1.224953 
				CHANNELS 3 Xrotation Yrotation Zrotation
				End Site
				{
					OFFSET 0.000000 -2.449906 4.627600 
				}
			}
		}
	}
}
MOTION
Frames: 6
Frame Time: 0.033333
5.808931 34.187336 -9.156624 6.152344 -2.988281 51.679688 34.423828 9.511719 3.741848 -15.507813 -2.753906 0.468750 -27.539061 -6.298828 -25.870213 3.310547 3.144531 -26.649855 6.894531 8.105469 0.390625 -59.531254 -10.087890 27.539061 -31.826176 -2.226563 -9.394531 7.236329 -1.210938 -0.205285 -11.923828 -9.501953 0.302734 40.966797 36.210938 -43.812588 19.189453 2.480469 -17.841799 36.679688 -25.078125 -18.681641 -42.947357 42.566467 3.502241 87.023888 1.904371 -4.020248 -19.054138 -18.259295 -13.285578 -69.547600 -32.166901 7.371731 62.992561 -0.907107 3.145391 7.523037 10.660304 5.425541 
5.949660 34.471691 -10.504324 2.812500 -2.119140 54.130501 33.896484 8.154297 1.943360 -15.673827 -1.347656 -0.595933 -24.287107 -3.876953 -26.846363 3.310547 3.496094 -27.177139 6.904297 7.929688 0.408809 -57.167969 -9.931642 24.062502 -29.033201 -2.236328 -11.298447 6.181641 0.019531 -0.136719 -12.363282 -7.158204 0.205078 47.539063 29.746092 -32.504921 19.843750 2.382812 -14.746498 35.703125 -21.904297 -16.123047 -43.163811 42.265263 3.927984 87.550804 1.913985 -4.031927 -18.298937 -17.651909 -13.158910 -62.481190 -33.716732 4.685796 56.843914 -0.722688 2.816336 10.116680 9.789176 5.272747 
6.230537 35.093842 -12.085956 -0.537109 -1.064455 56.591572 33.017578 6.503906 -0.116082 -15.302733 0.937500 -1.806481 -20.380859 -1.611328 -27.295197 3.837891 3.671875 -27.323593 7.431641 7.939454 0.330682 -54.833984 -10.419923 20.878908 -26.523438 -2.255859 -11.025393 5.146484 2.460938 0.097656 -13.310546 -4.482422 0.186310 52.246094 23.173830 -26.441471 22.324217 2.500000 -20.283203 30.937502 -23.046875 -14.203040 -40.848202 40.291462 4.888676 86.678207 1.934122 -3.826584 -23.278748 -15.789440 -14.288713 -53.172989 -35.106937 1.405375 48.426914 0.158717 2.876796 12.379539 8.987667 4.987192 
6.634524 36.031178 -13.878676 -3.691406 0.000000 59.228512 31.259771 5.156250 -1.913185 -14.755858 3.564453 -2.831424 -15.107422 0.498047 -27.373049 4.365234 3.847656 -27.294922 7.792969 7.587890 0.330742 -52.666019 -10.712891 17.578125 -24.306641 -2.246094 -10.233993 3.203125 3.876917 0.039720 -14.580079 -2.480469 0.058594 55.351563 16.943357 -23.053795 25.400389 2.744141 -25.908201 27.548826 -26.494141 -14.013673 -38.260265 38.220875 5.202594 84.038132 1.748821 -4.051546 -28.585732 -15.892288 -16.312267 -41.908916 -35.239735 -1.949155 38.418419 0.214978 2.620232 7.774762 5.802325 6.115087 
7.001878 37.133480 -15.910894 -6.152343 0.527344 61.523491 29.511721 4.394531 -3.202377 -14.033204 5.322266 -3.505859 -10.380858 2.968750 -27.294418 4.716797 3.681641 -27.274761 8.496095 7.587890 0.242851 -50.332031 -11.289062 12.929687 -23.935547 -2.119140 -8.427735 -0.195313 5.810547 -0.302734 -15.644529 -1.201172 0.000205 56.826168 12.080079 -22.021484 25.185547 3.037110 -29.844265 27.744139 -26.210938 -14.121094 -35.951878 35.726345 6.768841 81.229050 1.583519 -4.069893 -33.789127 -14.553830 -17.550232 -33.314480 -33.831635 -3.446383 33.681129 0.683416 2.012062 -6.528077 -4.836082 6.505713 
7.151532 38.191376 -18.296438 -8.437499 0.878906 62.929840 28.818361 4.912109 -3.065570 -14.033203 5.498047 -3.681641 -8.095704 4.375000 -27.353516 5.244141 3.505860 -27.411512 9.189452 7.792968 0.292969 -48.554688 -11.367188 7.031250 -25.624998 -2.011719 -7.724266 -2.226563 7.871094 -0.703125 -16.181641 -0.644531 -0.029187 57.265625 9.638673 -24.472654 23.447266 3.085937 -33.301308 25.439455 -30.722658 -14.790145 -34.897469 32.582218 7.920846 79.662262 1.417560 -3.794127 -36.271107 -13.041641 -17.104588 -28.777241 -32.106567 -6.385920 35.258408 0.517567 2.203081 -12.505843 -13.742801 3.590458 
